<svg width="96" height="96" viewBox="0 0 96 96" fill="none" xmlns="http://www.w3.org/2000/svg">
<rect width="96" height="96" rx="10" fill="#FAFAFA"/>
<path d="M24 76H36V52H60V76H72V40L48 22L24 40V76ZM24 84C21.8 84 19.9173 83.2173 18.352 81.652C16.784 80.084 16 78.2 16 76V40C16 38.7333 16.284 37.5333 16.852 36.4C17.4173 35.2667 18.2 34.3333 19.2 33.6L43.2 15.6C43.9333 15.0667 44.7 14.6667 45.5 14.4C46.3 14.1333 47.1333 14 48 14C48.8667 14 49.7 14.1333 50.5 14.4C51.3 14.6667 52.0667 15.0667 52.8 15.6L76.8 33.6C77.8 34.3333 78.584 35.2667 79.152 36.4C79.7173 37.5333 80 38.7333 80 40V76C80 78.2 79.2173 80.084 77.652 81.652C76.084 83.2173 74.2 84 72 84H52V60H44V84H24Z" fill="#18181B"/>
</svg>
