<svg width="99" height="38" viewBox="0 0 99 38" fill="none" xmlns="http://www.w3.org/2000/svg">
<path d="M41.5032 9.60409H41.7781C43.1217 9.63912 44.2956 9.93008 45.1999 10.3891C46.1687 10.881 46.7949 11.5465 47.0405 12.2687L48.0139 12.1077V9.96438H52.9854V29.1618H48.0139V27.0186L47.0404 26.8579C46.7948 27.5817 46.1686 28.2471 45.2 28.7384C44.2347 29.228 42.9619 29.5257 41.5032 29.5257C38.7896 29.5257 36.5183 28.5766 34.6938 26.676C32.9007 24.7284 31.9829 22.3655 31.9829 19.5631C31.9829 16.7583 32.9022 14.3999 34.6939 12.4928C36.5182 10.5537 38.7887 9.60409 41.5032 9.60409ZM38.5848 23.5267L38.5847 23.5268L38.5926 23.5343C39.6902 24.585 41.0171 25.1143 42.584 25.1143C44.1868 25.1143 45.5555 24.5932 46.6582 23.5337L46.6584 23.5334C47.7946 22.4401 48.3742 21.1092 48.3742 19.5667C48.3742 18.0289 47.7978 16.6959 46.6584 15.639C45.5538 14.5381 44.1405 14.0155 42.584 14.0155C41.0174 14.0155 39.6876 14.5448 38.5883 15.6424C37.4842 16.7051 36.9544 18.039 36.9544 19.5667C36.9544 21.0978 37.4863 22.4281 38.5848 23.5267Z" fill="#6E32F0" stroke="#6E32F0"/>
<path d="M61.4178 26.858L60.4444 27.0189V36.9031H55.4729V9.96835H60.4444V12.1116L61.4179 12.2723C61.6635 11.5485 62.2897 10.8831 63.2583 10.3918C64.2236 9.90219 65.4964 9.60449 66.9551 9.60449C69.6707 9.60449 71.9387 10.5546 73.7218 12.4897L73.7217 12.4898L73.7289 12.4973C75.5564 14.3993 76.4754 16.7589 76.4754 19.5635C76.4754 22.3671 75.5569 24.7293 73.7253 26.6764L73.7251 26.6766C71.9412 28.5753 69.6713 29.5261 66.9551 29.5261C65.4966 29.5261 64.2238 29.2276 63.2584 28.7375C62.2896 28.2457 61.6634 27.5801 61.4178 26.858ZM61.7537 23.5271L61.761 23.5343L61.7685 23.5413C62.9054 24.5886 64.2689 25.1147 65.8743 25.1147C67.4404 25.1147 68.7679 24.5895 69.8664 23.5341L69.8664 23.5341L69.8735 23.5271C70.972 22.4285 71.5039 21.0982 71.5039 19.5671C71.5039 18.0396 70.9742 16.7057 69.8703 15.6431C68.7756 14.5464 67.4852 14.0159 65.8743 14.0159C64.2676 14.0159 62.9 14.5431 61.7606 15.6396C60.6614 16.6959 60.0841 18.0276 60.0841 19.5671C60.0841 21.1082 60.6624 22.4357 61.7537 23.5271Z" fill="#6E32F0" stroke="#6E32F0"/>
<path d="M95.9771 24.306V28.3284C94.1903 29.4067 91.8811 29.9498 88.9824 29.9498C85.8005 29.9498 83.2859 29.0222 81.3488 27.2391C79.5244 25.4842 78.5676 23.2034 78.5026 20.3066V19.9908V19.7911C78.5026 16.7397 79.4629 14.3514 81.3558 12.536L81.356 12.5358C83.2954 10.6743 85.8128 9.75 88.7042 9.75C91.5867 9.75 93.9377 10.7073 95.7169 12.5606C97.5078 14.4297 98.4242 16.7086 98.4242 19.47C98.4242 19.971 98.4003 20.4708 98.356 20.9355H83.9741H83.449L83.4747 21.46C83.5409 22.8122 84.1557 23.9326 85.1978 24.703C86.2283 25.4647 87.6449 25.863 89.3035 25.863C91.8844 25.863 94.1262 25.3619 95.9771 24.306ZM83.5097 17.5437L84.0097 17.5544V18.0402H92.9063H93.4063V17.5402C93.4063 15.3647 91.2289 13.7155 88.697 13.7155C87.365 13.7155 86.1782 14.0616 85.1648 14.7686C84.296 15.3748 83.7415 16.1424 83.5667 17.0402H83.5097V17.5402V17.5437Z" fill="#6E32F0" stroke="#6E32F0"/>
<path d="M25.3863 25.8791L25.6149 26.2201L25.1647 26.2908V26.2944V27.2315L25.3932 27.0783C25.4221 27.1677 25.4482 27.2484 25.4743 27.3292L25.4746 27.3302C25.5485 27.559 25.6224 27.788 25.7595 28.2135L25.7595 28.2135L25.7611 28.2182L27.1643 32.4305L23.9219 29.5317L23.9218 29.5316L22.8089 28.5364L22.5498 28.3048L22.2424 28.4669C20.2221 29.5322 17.9191 30.1357 15.4768 30.1357C7.44491 30.1357 0.908936 23.5997 0.908936 15.5678C0.908936 7.53598 7.44491 1 15.4768 1C23.5086 1 30.0446 7.53598 30.0446 15.5678C30.0446 17.8022 29.5381 19.9194 28.634 21.8139L24.5014 17.0548C24.5822 16.5711 24.6237 16.0746 24.6237 15.5678C24.6237 10.5189 20.5295 6.42095 15.4768 6.42095C10.424 6.42095 6.32989 10.5189 6.32989 15.5678C6.32989 18.3053 7.64602 20.4693 9.42534 22C11.1971 23.5241 13.45 24.4428 15.4092 24.7101L15.4093 24.7101C16.9217 24.9162 18.0502 24.8571 18.9465 24.6613C19.8453 24.4649 20.4838 24.1362 21.0064 23.8455L21.5956 23.5177L21.1109 23.0491L15.537 17.6596L21.3884 17.6966L24.0314 20.7037L26.9013 24.2002L26.9011 24.2003L26.9104 24.211L26.9407 24.2459C26.8066 24.4693 26.6362 24.7147 26.4192 24.9628L26.4179 24.9642C26.0521 25.3855 25.6806 25.6818 25.3863 25.8791Z" fill="#6E32F0" stroke="#6E32F0"/>
</svg>
