<svg width="24" height="24" viewBox="0 0 24 24" fill="none" xmlns="http://www.w3.org/2000/svg">
<path d="M23.96 13.5996L22.1383 3.26762C21.8907 1.86384 20.547 0.923084 19.1435 1.17065L3.51833 3.92584C2.1145 4.17335 1.17379 5.51678 1.42131 6.92056L1.55517 7.67984C0.640926 8.07865 0 8.99083 0 10.0504V20.2837C0 21.7091 1.15969 22.8688 2.58514 22.8688H18.096C19.5214 22.8688 20.6811 21.7091 20.6811 20.2837V16.8027L21.863 16.5943C22.5431 16.4744 23.1357 16.0969 23.5318 15.5312C23.9278 14.9656 24.0799 14.2796 23.96 13.5996ZM22.3767 14.7225C22.1967 14.9796 21.9273 15.1512 21.6182 15.2057L20.6811 15.3709V14.5673V11.3687V10.0503C20.6811 8.62487 19.5214 7.46518 18.096 7.46518H2.94922L2.81 6.67567C2.75548 6.36659 2.82466 6.05477 3.00468 5.79762C3.1847 5.54052 3.45412 5.36891 3.76321 5.31439L19.3883 2.55924C19.4571 2.54711 19.5255 2.54129 19.593 2.54129C20.1521 2.54129 20.6493 2.94306 20.7496 3.5124L22.5714 13.8444C22.6259 14.1535 22.5567 14.4654 22.3767 14.7225ZM18.096 21.4587H2.58514C1.93721 21.4587 1.41008 20.9316 1.41008 20.2837V15.2723H19.271V20.2836C19.271 20.9316 18.7439 21.4587 18.096 21.4587ZM2.58514 8.8753H18.096C18.7439 8.8753 19.271 9.40243 19.271 10.0504V10.6637H1.41008V10.0504C1.41008 9.40243 1.93721 8.8753 2.58514 8.8753ZM19.271 12.0738V13.8623H1.41008V12.0738H19.271Z" fill="black"/>
<path d="M6.78491 18.6274H3.58639C3.19702 18.6274 2.88135 18.9431 2.88135 19.3325C2.88135 19.7218 3.19702 20.0375 3.58639 20.0375H6.78491C7.17427 20.0375 7.48994 19.7218 7.48994 19.3325C7.48994 18.9431 7.17427 18.6274 6.78491 18.6274Z" fill="black"/>
</svg>
